<?xml version='1.0' encoding='utf-8'?>
<svg xmlns="http://www.w3.org/2000/svg" xmlns:xlink="http://www.w3.org/1999/xlink" viewBox="178.08 -9.82 238.34 104.76" width="920" height="404"><g transform="translate(0 0)"><g transform="translate(0 0)"><g transform="translate(0 0)"><g transform="translate(188.07334888229025 0)"><g transform="translate(0 0)"><g transform="scale(0.8960000000000001 0.8960000000000001) translate(2.066666603088379 87.30249786376953)"><g transform="translate(0.000,0)" fill="#0B2545" stroke="#0B2545" stroke-width="0"><path d="M50.90,-6.70L16.30,4.10L15.65,4.21L14.90,4.55L14.07,5.04L13.20,5.60L12.31,6.16L11.45,6.65L10.69,6.99L10.10,7.10L9.21,7.34L7.47,7.50L5.81,7.21L5.00,6.90L4.22,6.50L2.76,5.50L1.45,4.23L0.85,3.50L0.29,2.71L-0.65,1.01L-1.37,-0.85L-1.65,-1.85L-1.86,-2.87L-2.06,-4.89L-1.96,-6.90L-1.80,-7.90L-1.62,-8.68L-1.22,-10.29L-0.75,-11.99L-0.21,-13.78L0.40,-15.64L1.08,-17.59L1.45,-18.60L1.78,-19.48L2.45,-21.25L3.15,-23.05L3.87,-24.88L4.63,-26.73L5.42,-28.62L6.23,-30.53L6.65,-31.50L7.02,-32.35L7.77,-34.06L8.52,-35.78L9.28,-37.51L10.05,-39.24L10.82,-40.99L11.61,-42.75L12.40,-44.51L12.80,-45.40L13.26,-46.41L14.16,-48.42L15.04,-50.41L15.91,-52.37L16.77,-54.32L17.61,-56.25L18.44,-58.15L18.85,-59.10L19.25,-60.04L20.04,-61.89L20.80,-63.70L21.54,-65.47L22.25,-67.21L22.93,-68.92L23.58,-70.58L23.90,-71.40L24.33,-72.52L25.09,-74.67L25.75,-76.67L26.29,-78.55L26.73,-80.28L26.90,-81.10L27.01,-82.51L27.15,-83.55L27.31,-84.30L27.50,-84.85L28.00,-85.55L28.35,-85.84L28.80,-86.20L29.98,-87.00L32.23,-87.10L33.30,-86.40L33.82,-85.89L34.80,-84.65L35.73,-83.13L36.59,-81.31L37.00,-80.30L37.14,-79.55L37.15,-78.70L37.08,-77.79L36.95,-76.85L36.79,-75.91L36.60,-75.00L36.45,-74.17L36.40,-73.50L36.29,-72.83L35.72,-70.72L35.25,-69.30L34.98,-68.50L34.37,-66.79L33.68,-64.90L32.91,-62.84L32.50,-61.75L32.16,-60.85L31.44,-58.99L30.67,-57.06L29.88,-55.05L29.04,-52.97L28.60,-51.90L28.23,-51.00L27.50,-49.18L26.76,-47.35L26.02,-45.50L25.27,-43.63L24.52,-41.75L24.15,-40.80L23.78,-39.85L23.03,-37.95L22.28,-36.06L21.54,-34.17L20.80,-32.28L20.07,-30.39L19.70,-29.45L19.34,-28.51L18.63,-26.67L17.94,-24.88L17.29,-23.13L16.65,-21.42L16.04,-19.76L15.75,-18.95L15.41,-17.99L14.75,-16.14L14.15,-14.39L13.59,-12.72L13.09,-11.15L12.85,-10.40L12.50,-9.22L11.96,-7.15L11.66,-5.48L11.60,-4.80L12.61,-5.08L14.64,-5.64L16.66,-6.19L18.67,-6.72L20.69,-7.25L22.70,-7.76L24.70,-8.26L25.70,-8.50L26.68,-8.73L28.68,-9.21L30.74,-9.70L31.80,-9.95L32.86,-10.20L34.98,-10.67L37.06,-11.13L38.10,-11.35L39.13,-11.56L41.16,-11.98L43.16,-12.36L44.15,-12.55L45.12,-12.73L46.96,-13.04L48.68,-13.29L49.50,-13.40L50.85,-13.36L52.10,-13.45L53.25,-13.59L54.30,-13.70L55.22,-13.74L56.00,-13.65L56.63,-13.36L57.10,-12.80L57.03,-11.94L56.13,-10.19L55.30,-9.30L54.65,-8.73L53.25,-7.75L51.72,-6.99L50.90,-6.70Z   " class="" /></g><g transform="translate(60.600,0)" fill="#0B2545" stroke="#0B2545" stroke-width="0"><path d="M51.90,-30.00L51.03,-28.90L49.51,-26.97L48.85,-26.15L48.25,-25.41L47.17,-24.11L46.70,-23.55L45.86,-22.57L45.15,-21.75L44.51,-21.04L43.90,-20.40L43.19,-19.75L41.74,-18.47L40.24,-17.25L38.68,-16.07L37.07,-14.95L36.25,-14.40L35.41,-13.87L33.71,-12.87L31.96,-11.95L30.17,-11.11L28.33,-10.35L27.40,-10.00L26.46,-9.67L24.54,-9.08L22.59,-8.59L20.60,-8.18L18.58,-7.87L17.55,-7.75L16.52,-7.65L14.44,-7.54L12.34,-7.54L10.22,-7.64L8.08,-7.85L7.00,-8.00L6.01,-8.19L4.12,-8.71L2.34,-9.45L0.66,-10.39L-0.91,-11.55L-1.65,-12.20L-2.24,-12.79L-3.33,-14.14L-4.28,-15.69L-5.11,-17.46L-5.80,-19.44L-6.37,-21.63L-6.60,-22.80L-6.56,-23.99L-6.38,-26.27L-6.06,-28.45L-5.62,-30.51L-5.35,-31.50L-5.05,-32.47L-4.40,-34.34L-3.68,-36.14L-2.88,-37.87L-2.45,-38.70L-2.01,-39.52L-1.07,-41.09L-0.09,-42.59L0.96,-44.02L1.50,-44.70L2.24,-45.59L3.75,-47.30L5.31,-48.92L6.10,-49.70L6.58,-50.12L8.00,-50.77L8.95,-51.00L10.00,-51.16L12.22,-51.26L13.40,-51.20L14.59,-51.07L16.89,-50.59L18.00,-50.25L19.03,-49.83L20.68,-48.76L21.30,-48.10L21.67,-47.41L21.95,-45.81L21.85,-44.90L21.63,-43.93L20.90,-41.88L20.40,-40.80L20.02,-40.07L19.19,-38.59L18.25,-37.10L17.75,-36.35L17.23,-35.61L16.21,-34.16L15.20,-32.77L14.70,-32.10L14.38,-31.73L13.30,-30.55L12.55,-29.75L12.00,-29.16L10.86,-27.95L9.70,-26.69L9.10,-26.05L8.22,-25.09L6.60,-23.27L5.85,-22.40L4.79,-21.00L4.50,-20.20L4.68,-19.34L5.56,-17.89L6.25,-17.30L7.05,-16.78L8.83,-15.93L9.80,-15.60L10.80,-15.33L12.77,-14.95L13.75,-14.85L14.67,-14.79L16.20,-14.77L16.80,-14.80L17.94,-14.83L20.23,-15.05L22.54,-15.49L23.70,-15.80L24.57,-16.06L26.30,-16.62L28.02,-17.25L29.71,-17.93L30.55,-18.30L31.38,-18.68L33.02,-19.48L34.62,-20.33L36.18,-21.23L36.95,-21.70L37.96,-22.33L39.90,-23.58L41.76,-24.80L42.65,-25.40L43.52,-25.99L45.14,-27.15L46.62,-28.26L47.30,-28.80L48.26,-29.56L49.91,-30.81L50.60,-31.30L51.21,-31.55L51.85,-31.30L52.19,-30.73L51.90,-30.00Z   M5.50,-33.60L5.28,-32.67L5.40,-32.10L5.88,-32.02L6.70,-32.60L7.39,-33.14L8.74,-34.29L10.03,-35.51L10.65,-36.15L11.53,-37.11L13.06,-38.93L13.70,-39.80L14.25,-40.63L15.05,-42.13L15.30,-42.80L15.43,-43.85L15.00,-44.40L14.01,-43.84L12.85,-43.15L12.22,-42.75L10.92,-41.77L10.25,-41.20L9.58,-40.56L8.28,-39.03L7.65,-38.15L7.24,-37.51L6.49,-36.09L5.81,-34.48L5.50,-33.60Z   " class="" /></g><g transform="translate(107.000,0)" fill="#0B2545" stroke="#0B2545" stroke-width="0"><path d="M31.00,-29.60L31.03,-28.70L31.08,-26.91L31.10,-25.13L31.10,-24.25L31.10,-23.37L31.13,-21.63L31.17,-19.90L31.20,-19.05L31.24,-18.20L31.36,-16.51L31.54,-14.83L31.65,-14.00L31.85,-12.76L32.43,-10.36L32.80,-9.20L34.04,-9.23L36.37,-9.43L38.52,-9.84L40.49,-10.45L42.28,-11.27L43.10,-11.75L43.89,-12.28L45.41,-13.42L46.84,-14.68L48.19,-16.05L49.45,-17.55L50.05,-18.35L50.63,-19.17L51.77,-20.87L52.85,-22.66L53.89,-24.53L54.87,-26.49L55.35,-27.50L55.75,-28.35L56.57,-30.05L57.42,-31.75L58.31,-33.45L59.24,-35.15L60.20,-36.85L60.70,-37.70L60.89,-38.55L61.45,-40.30L61.70,-41.04L62.23,-42.59L62.77,-44.21L63.05,-45.05L63.33,-45.89L63.86,-47.52L64.36,-49.09L64.60,-49.85L65.15,-51.69L65.40,-52.70L66.46,-52.58L67.45,-51.80L67.91,-51.20L68.76,-49.70L69.15,-48.80L69.50,-47.82L70.08,-45.67L70.30,-44.50L70.48,-43.30L70.76,-40.93L70.85,-39.75L70.90,-38.60L70.88,-36.42L70.80,-35.40L70.67,-34.46L70.28,-32.91L70.00,-32.30L69.49,-31.30L68.50,-29.34L67.56,-27.41L66.68,-25.52L65.85,-23.66L65.45,-22.75L65.06,-21.85L64.26,-20.07L63.45,-18.35L62.62,-16.67L61.78,-15.05L61.35,-14.25L60.80,-13.27L59.63,-11.39L58.35,-9.61L56.98,-7.91L56.25,-7.10L55.64,-6.47L54.33,-5.25L52.89,-4.10L51.31,-3.01L49.60,-1.99L48.70,-1.50L47.71,-0.95L45.75,-0.06L43.85,0.56L41.99,0.92L40.19,1.01L39.30,0.95L38.21,0.80L36.12,0.30L34.13,-0.47L32.25,-1.52L31.35,-2.15L30.65,-2.70L29.32,-3.88L28.09,-5.20L26.94,-6.64L25.89,-8.22L25.40,-9.05L24.93,-9.90L24.09,-11.64L23.35,-13.41L22.73,-15.22L22.21,-17.06L22.00,-18.00L21.02,-17.51L20.10,-16.85L19.16,-16.01L18.15,-15.00L17.61,-14.43L16.41,-13.13L15.75,-12.40L15.03,-11.63L13.30,-9.93L12.30,-9.00L11.27,-8.92L9.39,-9.26L7.77,-10.28L7.05,-11.05L6.55,-11.71L5.65,-13.15L4.86,-14.76L4.19,-16.55L3.90,-17.50L3.64,-18.48L3.20,-20.50L2.88,-22.57L2.66,-24.71L2.60,-25.80L2.56,-26.88L2.53,-28.93L2.58,-30.83L2.71,-32.58L2.80,-33.40L2.91,-34.19L3.18,-36.04L3.35,-37.10L3.54,-38.20L3.99,-40.43L4.25,-41.55L4.54,-42.66L5.22,-44.76L5.60,-45.75L6.02,-46.67L6.97,-48.14L7.50,-48.70L8.65,-48.26L10.61,-47.31L12.15,-46.29L12.75,-45.75L13.49,-44.90L14.49,-43.08L14.75,-42.10L14.87,-41.08L14.74,-38.96L14.50,-37.85L14.18,-36.72L13.40,-34.45L12.95,-33.30L12.63,-32.53L12.01,-30.96L11.40,-29.36L11.10,-28.55L10.69,-27.33L10.14,-24.96L10.00,-23.80L10.86,-24.37L12.52,-25.60L14.08,-26.98L15.55,-28.49L16.25,-29.30L16.92,-30.14L18.12,-31.92L19.16,-33.82L20.03,-35.84L20.40,-36.90L20.56,-37.58L20.65,-38.40L20.74,-39.29L20.90,-40.15L21.15,-40.95L21.50,-41.65L22.00,-42.16L22.70,-42.40L23.78,-42.43L25.86,-42.03L26.85,-41.60L27.78,-41.05L29.35,-39.65L30.00,-38.80L30.55,-37.86L31.32,-35.76L31.55,-34.60L31.63,-33.79L31.59,-32.15L31.27,-30.46L31.00,-29.60Z   " class="" /></g><g transform="translate(188.700,0)" fill="#0B2545" stroke="#0B2545" stroke-width="0"><path d="M22.20,-76.60L23.06,-77.15L24.45,-77.20L25.28,-77.07L26.95,-76.59L27.80,-76.25L28.62,-75.85L30.07,-74.90L30.70,-74.35L31.50,-73.19L31.50,-72.00L31.13,-71.10L30.60,-70.00L29.95,-68.80L29.20,-67.60L28.73,-66.88L27.69,-65.47L26.50,-64.11L25.17,-62.79L24.45,-62.15L23.71,-61.52L22.23,-60.34L20.74,-59.26L19.25,-58.26L18.50,-57.80L17.27,-57.09L16.40,-56.55L15.55,-56.31L14.40,-56.50L13.86,-57.39L13.85,-58.85L14.00,-59.74L14.48,-61.59L14.80,-62.55L15.16,-63.52L15.93,-65.39L16.35,-66.30L17.06,-67.83L17.50,-68.80L17.99,-69.98L18.94,-71.97L19.83,-73.51L20.25,-74.10L20.84,-74.86L21.82,-76.11Z   " class="" /><path d="M5.20,-4.30L3.71,-3.94L2.45,-4.05L1.39,-4.55L0.50,-5.35L-0.20,-6.41L-0.70,-7.70L-1.00,-9.13L-1.10,-10.60L-1.07,-11.67L-0.85,-13.84L-0.41,-16.04L-0.10,-17.15L0.14,-17.99L0.59,-19.68L0.99,-21.40L1.34,-23.13L1.50,-24.00L1.61,-24.61L1.91,-26.18L2.10,-27.15L2.31,-28.20L2.78,-30.45L3.05,-31.65L3.24,-32.47L3.63,-34.13L4.04,-35.80L4.25,-36.65L4.58,-37.90L5.25,-40.28L5.60,-41.40L5.95,-42.46L6.68,-44.31L7.05,-45.10L7.79,-46.30L8.50,-46.90L9.84,-46.85L11.45,-46.70L12.29,-46.54L13.77,-45.89L14.40,-45.40L15.36,-44.32L16.73,-42.24L17.15,-41.25L17.42,-40.27L17.62,-38.30L17.55,-37.30L17.38,-36.29L16.78,-34.22L16.35,-33.15L16.03,-32.42L15.39,-30.89L14.73,-29.25L14.40,-28.40L14.05,-27.45L13.34,-25.51L12.62,-23.53L11.90,-21.51L11.17,-19.46L10.42,-17.36L10.05,-16.30L9.67,-15.24L8.90,-13.15L8.11,-11.11L7.31,-9.11L6.48,-7.15L5.63,-5.24Z   " class="" /></g><g transform="translate(219.000,0)" fill="#0B2545" stroke="#0B2545" stroke-width="0"><path d="M20.50,-39.00L19.86,-38.42L18.52,-37.20L17.08,-35.93L15.55,-34.59L14.75,-33.90L13.93,-33.20L12.28,-31.81L10.59,-30.44L8.87,-29.08L8.00,-28.40L8.00,-27.90L8.00,-27.40L8.03,-26.90L8.10,-26.40L8.23,-25.65L8.95,-23.88L9.55,-22.85L10.01,-22.12L10.95,-20.60L11.94,-18.99L12.45,-18.15L12.96,-17.29L13.94,-15.51L14.86,-13.66L15.30,-12.70L15.70,-11.74L16.29,-9.82L16.60,-7.94L16.65,-7.00L16.62,-6.07L16.27,-4.24L15.55,-2.44L15.05,-1.55L14.60,-0.90L13.44,0.36L11.95,1.55L10.13,2.67L9.10,3.20L8.03,3.44L5.93,3.79L3.92,3.96L1.98,3.94L0.11,3.74L-1.68,3.36L-2.55,3.10L-3.57,2.74L-5.55,1.91L-7.46,0.93L-9.29,-0.21L-11.05,-1.50L-11.90,-2.20L-12.63,-3.08L-13.89,-4.96L-14.87,-6.98L-15.25,-8.05L-15.57,-9.13L-16.05,-11.26L-16.31,-13.36L-16.35,-14.40L-16.34,-15.42L-16.20,-17.36L-15.88,-19.18L-15.65,-20.05L-15.25,-21.24L-14.27,-23.12L-13.70,-23.80L-12.74,-23.64L-11.64,-22.34L-11.50,-21.20L-11.51,-20.08L-11.61,-18.03L-11.70,-17.10L-11.76,-16.22L-11.66,-14.57L-11.50,-13.80L-11.19,-12.92L-9.92,-10.97L-8.95,-9.90L-8.22,-9.18L-6.67,-7.83L-5.02,-6.58L-4.15,-6.00L-3.27,-5.46L-1.49,-4.55L0.30,-3.86L1.20,-3.60L2.48,-3.37L4.63,-3.62L5.50,-4.10L5.31,-5.10L4.89,-7.09L4.42,-9.07L3.89,-11.05L3.32,-13.02L2.69,-14.97L2.35,-15.95L2.01,-16.92L1.37,-18.85L0.75,-20.75L0.18,-22.62L-0.36,-24.47L-0.86,-26.30L-1.10,-27.20L-1.18,-28.14L-1.26,-30.04L-1.21,-31.95L-1.04,-33.88L-0.74,-35.82L-0.55,-36.80L-0.32,-37.76L0.25,-39.59L0.96,-41.27L1.83,-42.83L2.84,-44.24L3.40,-44.90L4.18,-45.70L5.79,-47.14L7.48,-48.34L8.35,-48.85L9.23,-49.31L10.94,-50.10L12.59,-50.71L13.40,-50.95L14.57,-51.23L16.72,-51.56L17.70,-51.60L19.35,-51.50L20.50,-51.20L21.10,-50.66L21.97,-49.36L22.25,-48.60L22.44,-47.79L22.62,-46.12L22.60,-45.25L22.52,-44.38L22.20,-42.65L21.95,-41.80L21.65,-40.99L20.93,-39.59L20.50,-39.00Z   " class="" /></g></g></g></g></g></g></g></svg>